<svg width="150" height="150" viewBox="0 0 150 150" fill="none" xmlns="http://www.w3.org/2000/svg">
<path fill-rule="evenodd" clip-rule="evenodd" d="M75 133.337C80.2326 126.373 83.3333 117.715 83.3333 108.333C83.3333 98.9513 80.2326 90.2937 75 83.3291C82.6019 73.211 94.7033 66.6665 108.333 66.6665C131.345 66.6665 150 85.3213 150 108.333C150 131.345 131.345 150 108.333 150C94.7033 150 82.6019 143.455 75 133.337Z" fill="url(#paint0_linear)"/>
<path fill-rule="evenodd" clip-rule="evenodd" d="M16.6625 75C6.54448 82.6019 0 94.7033 0 108.333C0 131.345 18.6548 150 41.6667 150C64.6785 150 83.3333 131.345 83.3333 108.333C83.3333 94.7033 76.7889 82.6019 66.6708 75C59.7063 80.2326 51.0486 83.3334 41.6667 83.3334C32.2847 83.3334 23.627 80.2326 16.6625 75Z" fill="url(#paint1_linear)"/>
<path fill-rule="evenodd" clip-rule="evenodd" d="M75 16.6626C69.7674 23.6271 66.6667 32.2848 66.6667 41.6667C66.6667 51.0485 69.7674 59.7062 75 66.6707C67.3981 76.7888 55.2967 83.3333 41.6667 83.3333C18.6548 83.3333 0 64.6785 0 41.6667C0 18.6548 18.6548 0 41.6667 0C55.2967 0 67.3981 6.54453 75 16.6626Z" fill="url(#paint2_linear)"/>
<path fill-rule="evenodd" clip-rule="evenodd" d="M133.338 74.9999C143.456 67.398 150 55.2966 150 41.6667C150 18.6548 131.345 0 108.333 0C85.3215 0 66.6667 18.6548 66.6667 41.6667C66.6667 55.2966 73.2112 67.398 83.3292 74.9999C90.2937 69.7673 98.9514 66.6665 108.333 66.6665C117.715 66.6665 126.373 69.7673 133.338 74.9999Z" fill="url(#paint3_linear)"/>
<defs>
<linearGradient id="paint0_linear" x1="150" y1="150" x2="75" y2="66" gradientUnits="userSpaceOnUse">
<stop stop-color="#FFA502"/>
<stop offset="1" stop-color="#FFDF7B"/>
</linearGradient>
<linearGradient id="paint1_linear" x1="84" y1="75" x2="2.04267e-06" y2="148.5" gradientUnits="userSpaceOnUse">
<stop stop-color="#70A1FF"/>
<stop offset="1" stop-color="#3742FA"/>
</linearGradient>
<linearGradient id="paint2_linear" x1="0" y1="0" x2="75" y2="84" gradientUnits="userSpaceOnUse">
<stop stop-color="#FF4757"/>
<stop offset="1" stop-color="#FF7388"/>
</linearGradient>
<linearGradient id="paint3_linear" x1="150" y1="-2.00669e-06" x2="66" y2="76.5" gradientUnits="userSpaceOnUse">
<stop stop-color="#2ED573"/>
<stop offset="1" stop-color="#86FFAC"/>
</linearGradient>
</defs>
</svg>
