<svg width="52" height="53" viewBox="0 0 52 53" fill="none" xmlns="http://www.w3.org/2000/svg">
<path d="M19.4632 51.2507C21.7499 51.9107 23.9912 52.2313 26.2396 52.2313H26.2417C27.3721 52.2313 28.5249 52.148 29.6644 51.9835C32.3377 51.5975 35.8214 50.9547 39.0795 49.3978C41.7932 48.1166 43.4869 45.7415 45.1245 43.4451L45.1268 43.4419L45.1938 43.3465C48.3465 38.8847 49.874 34.7703 50 30.3898C49.982 30.0314 49.9599 29.6745 49.9335 29.3192C49.9776 28.7186 50 28.1119 50 27.5C50 15.9867 42.0583 6.3282 31.3542 3.7038C29.3588 3.07166 27.2438 2.5679 24.9639 2.05589C24.811 2.01878 24.6435 2 24.4667 2C24.292 2 24.1102 2.01878 23.9406 2.05489L23.6116 2.12233C19.519 2.96177 15.2873 3.83021 11.4461 5.78787C5.98177 8.56108 2.56267 12.4231 0.994011 17.5944C-1.27042 25.0508 0.737012 32.1091 2.99945 38.0294C4.39699 41.6948 6.2551 44.2767 8.67997 45.92C10.0394 46.8408 11.3633 47.6564 12.6597 48.3697C14.7415 49.6533 17.0298 50.634 19.4632 51.2507Z" fill="#3742FA"/>
<path d="M21.4632 49.2507C23.7499 49.9107 25.9912 50.2313 28.2396 50.2313H28.2417C29.3721 50.2313 30.5249 50.148 31.6644 49.9835C34.3377 49.5975 37.8214 48.9547 41.0795 47.3978C43.7932 46.1166 45.4869 43.7415 47.1245 41.4451L47.1268 41.4419L47.1938 41.3465C50.3465 36.8847 51.874 32.7703 52 28.3898C51.982 28.0314 51.9599 27.6745 51.9335 27.3192C51.9776 26.7186 52 26.1119 52 25.5C52 13.9867 44.0583 4.3282 33.3542 1.7038C31.3588 1.07166 29.2438 0.567895 26.9639 0.0558884C26.811 0.0187775 26.6435 0 26.4667 0C26.292 0 26.1102 0.0187776 25.9406 0.0548886L25.6116 0.122333C21.519 0.961773 17.2873 1.83021 13.4461 3.78787C7.98177 6.56108 4.56267 10.4231 2.99401 15.5944C0.729577 23.0508 2.73701 30.1091 4.99945 36.0294C6.39699 39.6948 8.2551 42.2767 10.68 43.92C12.0394 44.8408 13.3633 45.6564 14.6597 46.3697C16.7415 47.6533 19.0298 48.634 21.4632 49.2507Z" fill="#70A1FF"/>
<path d="M13.9485 33.392C14.5965 35.39 16.566 36.665 18.6675 36.665H18.75C18.9428 37.606 19.4545 38.4516 20.1987 39.0589C20.9429 39.6661 21.874 39.9979 22.8345 39.998C23.52 39.998 24.1605 39.8255 24.7275 39.5285C24.9641 39.3988 25.161 39.2071 25.2971 38.9741C25.4332 38.741 25.5033 38.4754 25.5 38.2055V11.5385C25.503 11.1949 25.3876 10.8607 25.1732 10.5921C24.9587 10.3236 24.6583 10.1371 24.3225 10.064C23.57 9.91786 22.7902 10.0238 22.104 10.3655C20.988 10.8995 20.334 12.092 20.334 13.3325V13.415C19.4988 13.2446 18.6314 13.3343 17.8489 13.6722C17.0663 14.0101 16.4062 14.5799 15.9576 15.3047C15.5089 16.0295 15.2933 16.8744 15.3399 17.7255C15.3865 18.5766 15.693 19.393 16.218 20.0645C15.0421 20.2488 13.9708 20.8472 13.1974 21.7518C12.4239 22.6565 11.9992 23.8078 12 24.998C12 26.765 12.9165 28.3145 14.2995 29.216C13.6545 30.3725 13.443 31.835 13.9485 33.392ZM37.782 20.0645C38.307 19.393 38.6135 18.5766 38.6601 17.7255C38.7067 16.8744 38.4911 16.0295 38.0424 15.3047C37.5938 14.5799 36.9337 14.0101 36.1511 13.6722C35.3685 13.3343 34.5012 13.2446 33.666 13.415V13.3325C33.666 12.0935 33.0105 10.8995 31.8945 10.3655C31.2088 10.0237 30.4295 9.91774 29.6775 10.064C29.3418 10.1373 29.0416 10.3239 28.8272 10.5924C28.6128 10.8609 28.4972 11.1949 28.5 11.5385V38.204C28.5 38.7515 28.788 39.272 29.274 39.527C29.841 39.8255 30.48 39.998 31.1655 39.998C32.1262 39.9978 33.0574 39.6658 33.8017 39.0583C34.5459 38.4507 35.0575 37.6048 35.25 36.6635H35.334C37.434 36.6635 39.405 35.3885 40.053 33.3905C40.5585 31.8335 40.347 30.371 39.702 29.2145C40.4065 28.7593 40.9859 28.135 41.3873 27.3985C41.7887 26.662 41.9993 25.8368 42 24.998C42.0007 23.8078 41.5761 22.6565 40.8026 21.7518C40.0292 20.8472 38.9579 20.2488 37.782 20.0645Z" fill="white"/>
</svg>
