<svg width="52" height="53" viewBox="0 0 52 53" fill="none" xmlns="http://www.w3.org/2000/svg">
<path d="M5.50494 39.2623C6.83603 42.2816 8.53659 44.4674 10.68 45.92C17.0364 50.2254 22.6159 52.2313 28.2396 52.2313H28.2417C29.3721 52.2313 30.5249 52.148 31.6644 51.9835C34.3377 51.5975 37.8214 50.9547 41.0795 49.3978C43.7932 48.1166 45.4869 45.7415 47.1245 43.4451L47.1268 43.4419L47.1938 43.3465C50.3465 38.8847 51.874 34.7703 52 30.3898C51.9772 29.9356 51.9477 29.4839 51.9114 29.0347C51.9701 28.3639 52 27.6853 52 27C52 16.3419 44.7631 7.30652 34.7494 4.17531C32.3494 3.30932 29.7826 2.6889 26.9639 2.05589C26.811 2.01878 26.6435 2 26.4667 2C26.292 2 26.1102 2.01878 25.9406 2.05489L25.6116 2.12233C21.519 2.96177 17.2873 3.83021 13.4461 5.78787C7.98177 8.56108 4.56267 12.4231 2.99401 17.5944C2.14985 20.3741 1.89936 23.0984 2.03445 25.7291C2.01158 26.15 2 26.5737 2 27C2 31.4802 3.27873 35.6736 5.50494 39.2623Z" fill="#FF4757"/>
<path d="M3.50494 37.2623C4.83603 40.2816 6.53659 42.4674 8.67997 43.92C15.0364 48.2254 20.6159 50.2313 26.2396 50.2313H26.2417C27.3721 50.2313 28.5249 50.148 29.6644 49.9835C32.3377 49.5975 35.8214 48.9547 39.0795 47.3978C41.7932 46.1166 43.4869 43.7415 45.1245 41.4451L45.1268 41.4419L45.1938 41.3465C48.3465 36.8847 49.874 32.7703 50 28.3898C49.9772 27.9356 49.9477 27.4839 49.9114 27.0347C49.9701 26.3639 50 25.6853 50 25C50 14.3419 42.7631 5.30652 32.7494 2.17531C30.3494 1.30932 27.7826 0.688902 24.9639 0.0558884C24.811 0.0187775 24.6435 0 24.4667 0C24.292 0 24.1102 0.0187776 23.9406 0.0548886L23.6116 0.122333C19.519 0.961773 15.2873 1.83021 11.4461 3.78787C5.98177 6.56108 2.56267 10.4231 0.994011 15.5944C0.149848 18.3741 -0.100636 21.0984 0.0344499 23.7291C0.0115784 24.15 0 24.5737 0 25C0 29.4802 1.27873 33.6736 3.50494 37.2623Z" fill="#FF7388"/>
<path d="M21.3105 10.0091C21.139 10.0339 20.9753 10.0954 20.8308 10.189C20.8308 10.189 19.3361 11.1072 17.7292 12.1003C16.1223 13.0924 14.3346 14.1859 13.9258 14.4073C13.9006 14.418 13.8758 14.4296 13.8514 14.4419C12.3673 15.3359 12.0589 16.7962 12.0058 17.6152C12.0022 17.6533 12.0058 17.6844 12.0058 17.7248C11.9928 18.0316 12.0058 18.2289 12.0058 18.2289V33.297C12.0058 35.4864 14.6206 36.5395 17.1018 36.5395C17.9289 36.5395 18.756 36.4092 19.4649 36.1785C19.9376 35.9478 20.2767 35.4864 20.2767 35.025V22.9132C20.2767 20.2602 20.8674 19.0144 22.6398 17.9763C23.1124 17.7456 28.0678 14.4062 28.0678 14.4062C28.3042 14.1755 28.5476 13.7072 28.5476 13.3611V13.2527C28.5476 12.7913 28.3112 12.4383 27.9568 12.2076C27.6023 11.9769 27.1297 11.9769 26.7752 12.2076C26.6571 12.323 19.4496 17.0604 17.9136 17.8678C16.3775 18.7906 14.9443 19.0133 14.5898 18.5519C14.48 18.4446 14.3842 18.1158 14.3689 17.7952V17.7594V17.7225C14.3701 17.4087 14.4528 16.8182 15.1074 16.4248C15.7714 16.0638 17.4197 15.036 19.0219 14.0463C19.6989 13.6276 19.7828 13.5826 20.3133 13.2527C20.3831 13.5345 20.5591 13.7803 20.8062 13.9411C21.0533 14.102 21.3533 14.1661 21.6466 14.1207C21.9399 14.0753 22.205 13.9238 22.389 13.6963C22.5731 13.4687 22.6626 13.1819 22.6398 12.8928V11.1625C22.6411 10.9981 22.6064 10.8353 22.538 10.6851C22.4696 10.5348 22.3691 10.4006 22.2432 10.2914C22.1174 10.1821 21.969 10.1004 21.8082 10.0517C21.6473 10.003 21.4776 9.98849 21.3105 10.0091ZM30.763 14.0463C30.5751 14.0768 30.3975 14.1512 30.2455 14.2632C30.2455 14.2632 24.2975 18.1701 23.2672 18.8402C23.2547 18.8523 23.2425 18.8646 23.2306 18.8771C22.3751 19.5035 21.8682 20.2487 21.6425 20.9304C21.483 21.4137 21.4594 21.8082 21.4582 22.1208V22.4818C21.4565 22.5176 21.4565 22.5534 21.4582 22.5891V36.5395C21.4582 38.7312 24.0435 40 26.4066 40C27.47 40 28.4294 39.7762 29.1383 39.3148C30.5562 38.5074 37.4092 33.2959 37.4092 33.2959C37.7637 33.0652 38 32.7399 38 32.3938V17.3984C38 16.8216 37.7708 16.4756 37.2982 16.2449C36.9437 16.0142 36.3612 16.1226 36.0067 16.3533C34.1162 17.7375 29.0273 21.6455 27.8457 22.3376C26.1915 23.2604 24.6331 23.4911 24.0423 22.9144C23.806 22.6837 23.8213 22.4668 23.8213 22.1208C23.8284 21.9224 23.8509 21.7517 23.8958 21.6155C23.9619 21.4148 24.0966 21.168 24.5964 20.7873C24.6201 20.7689 24.6082 20.77 24.6331 20.7516C25.4873 20.1944 28.0997 18.4561 29.8035 17.3257C29.9001 17.5785 30.0843 17.7903 30.3242 17.9242C30.5642 18.0581 30.8446 18.1057 31.1167 18.0586C31.3888 18.0116 31.6355 17.8729 31.8137 17.6667C31.9919 17.4605 32.0905 17.1998 32.0922 16.93V15.1998C32.0935 15.0354 32.0588 14.8726 31.9905 14.7223C31.9221 14.5721 31.8216 14.4378 31.6957 14.3286C31.5698 14.2194 31.4215 14.1377 31.2606 14.089C31.0997 14.0403 30.9301 14.0257 30.763 14.0463ZM35.6369 22.4818V24.7888L29.7291 29.2575V26.9505L35.6369 22.4818Z" fill="white"/>
</svg>
