<svg width="52" height="53" viewBox="0 0 52 53" fill="none" xmlns="http://www.w3.org/2000/svg">
<path d="M19.4632 51.2507C21.7499 51.9107 23.9912 52.2313 26.2396 52.2313H26.2417C27.3721 52.2313 28.5249 52.148 29.6644 51.9835C32.3377 51.5975 35.8214 50.9547 39.0795 49.3978C41.7932 48.1166 43.4869 45.7415 45.1245 43.4451L45.1268 43.4419L45.1938 43.3465C48.3465 38.8847 49.874 34.7703 50 30.3898C49.982 30.0314 49.9599 29.6745 49.9335 29.3192C49.9776 28.7186 50 28.1119 50 27.5C50 15.9867 42.0583 6.3282 31.3542 3.7038C29.3588 3.07166 27.2438 2.5679 24.9639 2.05589C24.811 2.01878 24.6435 2 24.4667 2C24.292 2 24.1102 2.01878 23.9406 2.05489L23.6116 2.12233C19.519 2.96177 15.2873 3.83021 11.4461 5.78787C5.98177 8.56108 2.56267 12.4231 0.994011 17.5944C-1.27042 25.0508 0.737012 32.1091 2.99945 38.0294C4.39699 41.6948 6.2551 44.2767 8.67997 45.92C10.0394 46.8408 11.3633 47.6564 12.6597 48.3697C14.7415 49.6533 17.0298 50.634 19.4632 51.2507Z" fill="#FFA502"/>
<path d="M21.4632 49.2507C23.7499 49.9107 25.9912 50.2313 28.2396 50.2313H28.2417C29.3721 50.2313 30.5249 50.148 31.6644 49.9835C34.3377 49.5975 37.8214 48.9547 41.0795 47.3978C43.7932 46.1166 45.4869 43.7415 47.1245 41.4451L47.1268 41.4419L47.1938 41.3465C50.3465 36.8847 51.874 32.7703 52 28.3898C51.982 28.0314 51.9599 27.6745 51.9335 27.3192C51.9776 26.7186 52 26.1119 52 25.5C52 13.9867 44.0583 4.3282 33.3542 1.7038C31.3588 1.07166 29.2438 0.567895 26.9639 0.0558884C26.811 0.0187775 26.6435 0 26.4667 0C26.292 0 26.1102 0.0187776 25.9406 0.0548886L25.6116 0.122333C21.519 0.961773 17.2873 1.83021 13.4461 3.78787C7.98177 6.56108 4.56267 10.4231 2.99401 15.5944C0.729577 23.0508 2.73701 30.1091 4.99945 36.0294C6.39699 39.6948 8.2551 42.2767 10.68 43.92C12.0394 44.8408 13.3633 45.6564 14.6597 46.3697C16.7415 47.6533 19.0298 48.634 21.4632 49.2507Z" fill="#FFDF7B"/>
<path d="M40.35 11.8H36.9V10.3C36.9 10.135 36.765 10 36.6 10H17.4C17.235 10 17.1 10.135 17.1 10.3V11.8H13.65C13.2124 11.8 12.7927 11.9738 12.4833 12.2833C12.1738 12.5927 12 13.0124 12 13.45V19C12 22.0638 14.25 24.61 17.1825 25.075C17.76 29.4325 21.2625 32.8675 25.65 33.3438V37.2888H18.3C17.6363 37.2888 17.1 37.825 17.1 38.4888V39.7C17.1 39.865 17.235 40 17.4 40H36.6C36.765 40 36.9 39.865 36.9 39.7V38.4888C36.9 37.825 36.3638 37.2888 35.7 37.2888H28.35V33.3438C32.7375 32.8675 36.24 29.4325 36.8175 25.075C39.75 24.61 42 22.0638 42 19V13.45C42 13.0124 41.8262 12.5927 41.5167 12.2833C41.2073 11.9738 40.7876 11.8 40.35 11.8ZM17.1 22.285C15.7088 21.8388 14.7 20.5338 14.7 19V14.5H17.1V22.285ZM39.3 19C39.3 20.5375 38.2913 21.8425 36.9 22.285V14.5H39.3V19Z" fill="white"/>
</svg>
