<svg width="52" height="53" viewBox="0 0 52 53" fill="none" xmlns="http://www.w3.org/2000/svg">
<path d="M41.181 7.50786C45.4853 10.6208 48.3911 14.6144 50.066 19.7176C51.1608 23.0459 51.8119 26.6362 52 30.3898C51.874 34.7703 50.3465 38.8847 47.1938 43.3465L47.1268 43.4419L47.1245 43.4451C45.4869 45.7415 43.7932 48.1166 41.0795 49.3978C37.8214 50.9547 34.3377 51.5975 31.6644 51.9835C30.5249 52.148 29.3721 52.2313 28.2417 52.2313H28.2396C26.9382 52.2313 25.6392 52.1239 24.3324 51.9054C11.8167 50.8083 2 40.3005 2 27.5C2 26.9836 2.01598 26.471 2.04746 25.9626C1.88505 23.2597 2.12485 20.4564 2.99401 17.5944C4.56267 12.4231 7.98177 8.56108 13.4461 5.78787C17.2873 3.83021 21.519 2.96177 25.6116 2.12233L25.9406 2.05489C26.1102 2.01878 26.292 2 26.4667 2C26.6435 2 26.811 2.01878 26.9639 2.05589C32.4473 3.28733 36.9772 4.4711 41.181 7.50786Z" fill="#2ED573"/>
<path d="M39.181 5.50786C43.4853 8.62085 46.3911 12.6144 48.066 17.7176C49.1608 21.0459 49.8119 24.6362 50 28.3898C49.874 32.7703 48.3465 36.8847 45.1938 41.3465L45.1268 41.4419L45.1245 41.4451C43.4869 43.7415 41.7932 46.1166 39.0795 47.3978C35.8214 48.9547 32.3377 49.5975 29.6644 49.9835C28.5249 50.148 27.3721 50.2313 26.2417 50.2313H26.2396C24.9382 50.2313 23.6392 50.1239 22.3324 49.9054C9.81672 48.8083 2.13374e-08 38.3005 2.13374e-08 25.5C2.13374e-08 24.9836 0.0159752 24.471 0.0474577 23.9626C-0.114949 21.2597 0.124854 18.4564 0.994011 15.5944C2.56267 10.4231 5.98177 6.56108 11.4461 3.78787C15.2873 1.83021 19.519 0.961773 23.6116 0.122333L23.9406 0.0548886C24.1102 0.0187776 24.292 0 24.4667 0C24.6435 0 24.811 0.0187775 24.9639 0.0558884C30.4473 1.28733 34.9772 2.4711 39.181 5.50786Z" fill="#86FFAC"/>
<path d="M39.631 33.4465L37 29.5V16C37 14.347 35.65 13 34 13H16C14.3485 13 13 14.347 13 16V29.5L10.369 33.4465C10 34 10 34.3195 10 34.75V35.5C10 36.25 10.75 37 11.4985 37H38.5015C39.25 37 40 36.25 40 35.5V34.75C40 34.3195 40 34 39.631 33.4465ZM20.5 34L21.4 32.5H28.6L29.5 34H20.5ZM34 28H16V16H34V28Z" fill="white"/>
</svg>
