<svg width="52" height="53" viewBox="0 0 52 53" fill="none" xmlns="http://www.w3.org/2000/svg">
<path d="M21.4632 51.2507C23.7499 51.9107 25.9912 52.2313 28.2396 52.2313H28.2417C29.3721 52.2313 30.5249 52.148 31.6644 51.9835C34.3377 51.5975 37.8214 50.9547 41.0795 49.3978C43.7932 48.1166 45.4869 45.7415 47.1245 43.4451L47.1268 43.4419L47.1938 43.3465C50.3465 38.8847 51.874 34.7703 52 30.3898C51.982 30.0314 51.9599 29.6745 51.9335 29.3192C51.9776 28.7186 52 28.1119 52 27.5C52 15.9867 44.0583 6.3282 33.3542 3.7038C31.3588 3.07166 29.2438 2.5679 26.9639 2.05589C26.811 2.01878 26.6435 2 26.4667 2C26.292 2 26.1102 2.01878 25.9406 2.05489L25.6116 2.12233C21.519 2.96177 17.2873 3.83021 13.4461 5.78787C7.98177 8.56108 4.56267 12.4231 2.99401 17.5944C0.729577 25.0508 2.73701 32.1091 4.99945 38.0294C6.39699 41.6948 8.2551 44.2767 10.68 45.92C12.0394 46.8408 13.3633 47.6564 14.6597 48.3697C16.7415 49.6533 19.0298 50.634 21.4632 51.2507Z" fill="#FFA502"/>
<path d="M19.4632 49.2507C21.7499 49.9107 23.9912 50.2313 26.2396 50.2313H26.2417C27.3721 50.2313 28.5249 50.148 29.6644 49.9835C32.3377 49.5975 35.8214 48.9547 39.0795 47.3978C41.7932 46.1166 43.4869 43.7415 45.1245 41.4451L45.1268 41.4419L45.1938 41.3465C48.3465 36.8847 49.874 32.7703 50 28.3898C49.982 28.0314 49.9599 27.6745 49.9335 27.3192C49.9776 26.7186 50 26.1119 50 25.5C50 13.9867 42.0583 4.3282 31.3542 1.7038C29.3588 1.07166 27.2438 0.567895 24.9639 0.0558884C24.811 0.0187775 24.6435 0 24.4667 0C24.292 0 24.1102 0.0187776 23.9406 0.0548886L23.6116 0.122333C19.519 0.961773 15.2873 1.83021 11.4461 3.78787C5.98177 6.56108 2.56267 10.4231 0.994011 15.5944C-1.27042 23.0508 0.737012 30.1091 2.99945 36.0294C4.39699 39.6948 6.2551 42.2767 8.67997 43.92C10.0394 44.8408 11.3633 45.6564 12.6597 46.3697C14.7415 47.6533 17.0298 48.634 19.4632 49.2507Z" fill="#FFDF7B"/>
<path fill-rule="evenodd" clip-rule="evenodd" d="M23.125 36C23.125 36 21.25 36 21.25 34.0833C21.25 32.1667 23.125 26.4167 30.625 26.4167C38.125 26.4167 40 32.1667 40 34.0833C40 36 38.125 36 38.125 36H23.125ZM30.625 24.5C32.1168 24.5 33.5476 23.8942 34.6025 22.8159C35.6574 21.7375 36.25 20.275 36.25 18.75C36.25 17.225 35.6574 15.7625 34.6025 14.6841C33.5476 13.6058 32.1168 13 30.625 13C29.1332 13 27.7024 13.6058 26.6475 14.6841C25.5926 15.7625 25 17.225 25 18.75C25 20.275 25.5926 21.7375 26.6475 22.8159C27.7024 23.8942 29.1332 24.5 30.625 24.5ZM19.78 36C19.502 35.4016 19.3634 34.7456 19.375 34.0833C19.375 31.4862 20.65 28.8125 23.005 26.9533C21.8295 26.5831 20.6049 26.402 19.375 26.4167C11.875 26.4167 10 32.1667 10 34.0833C10 36 11.875 36 11.875 36H19.78ZM18.4375 24.5C19.6807 24.5 20.873 23.9952 21.7521 23.0966C22.6311 22.1979 23.125 20.9792 23.125 19.7083C23.125 18.4375 22.6311 17.2187 21.7521 16.3201C20.873 15.4215 19.6807 14.9167 18.4375 14.9167C17.1943 14.9167 16.002 15.4215 15.1229 16.3201C14.2439 17.2187 13.75 18.4375 13.75 19.7083C13.75 20.9792 14.2439 22.1979 15.1229 23.0966C16.002 23.9952 17.1943 24.5 18.4375 24.5Z" fill="white"/>
</svg>
