<svg width="52" height="53" viewBox="0 0 52 53" fill="none" xmlns="http://www.w3.org/2000/svg">
<path d="M3.50494 39.2623C4.83603 42.2816 6.53659 44.4674 8.67997 45.92C15.0364 50.2254 20.6159 52.2313 26.2396 52.2313H26.2417C27.3721 52.2313 28.5249 52.148 29.6644 51.9835C32.3377 51.5975 35.8214 50.9547 39.0795 49.3978C41.7932 48.1166 43.4869 45.7415 45.1245 43.4451L45.1268 43.4419L45.1938 43.3465C48.3465 38.8847 49.874 34.7703 50 30.3898C49.9772 29.9356 49.9477 29.4839 49.9114 29.0347C49.9701 28.3639 50 27.6853 50 27C50 16.3419 42.7631 7.30652 32.7494 4.17531C30.3494 3.30932 27.7826 2.6889 24.9639 2.05589C24.811 2.01878 24.6435 2 24.4667 2C24.292 2 24.1102 2.01878 23.9406 2.05489L23.6116 2.12233C19.519 2.96177 15.2873 3.83021 11.4461 5.78787C5.98177 8.56108 2.56267 12.4231 0.994011 17.5944C0.149848 20.3741 -0.100636 23.0984 0.0344499 25.7291C0.0115784 26.15 0 26.5737 0 27C0 31.4802 1.27873 35.6736 3.50494 39.2623Z" fill="#FF4757"/>
<path d="M5.50494 37.2623C6.83603 40.2816 8.53659 42.4674 10.68 43.92C17.0364 48.2254 22.6159 50.2313 28.2396 50.2313H28.2417C29.3721 50.2313 30.5249 50.148 31.6644 49.9835C34.3377 49.5975 37.8214 48.9547 41.0795 47.3978C43.7932 46.1166 45.4869 43.7415 47.1245 41.4451L47.1268 41.4419L47.1938 41.3465C50.3465 36.8847 51.874 32.7703 52 28.3898C51.9772 27.9356 51.9477 27.4839 51.9114 27.0347C51.9701 26.3639 52 25.6853 52 25C52 14.3419 44.7631 5.30652 34.7494 2.17531C32.3494 1.30932 29.7826 0.688902 26.9639 0.0558884C26.811 0.0187775 26.6435 0 26.4667 0C26.292 0 26.1102 0.0187776 25.9406 0.0548886L25.6116 0.122333C21.519 0.961773 17.2873 1.83021 13.4461 3.78787C7.98177 6.56108 4.56267 10.4231 2.99401 15.5944C2.14985 18.3741 1.89936 21.0984 2.03445 23.7291C2.01158 24.15 2 24.5737 2 25C2 29.4802 3.27873 33.6736 5.50494 37.2623Z" fill="#FF7388"/>
<path d="M14.5902 14.8635L20.524 20.0846L25.8107 13.5754C25.9587 13.3934 26.1459 13.2472 26.3583 13.1475C26.5707 13.0479 26.8028 12.9975 27.0373 13.0001C27.2719 13.0026 27.5029 13.0581 27.7131 13.1623C27.9232 13.2665 28.1072 13.4167 28.2512 13.6019L33.2962 20.0831L39.4218 14.7871C39.6623 14.5795 39.9605 14.4504 40.2765 14.417C40.5925 14.3836 40.9111 14.4475 41.1897 14.6001C41.4684 14.7527 41.6938 14.9868 41.8357 15.2711C41.9777 15.5553 42.0294 15.8761 41.984 16.1906L39.6448 32.3265H14.3922L12.0171 16.2639C11.9699 15.9477 12.021 15.6246 12.1636 15.3385C12.3061 15.0523 12.5332 14.8168 12.814 14.664C13.0948 14.5112 13.4158 14.4484 13.7335 14.484C14.0512 14.5197 14.3503 14.6522 14.5902 14.8635ZM14.5138 33.886H39.4654V35.4455C39.4654 35.8591 39.3011 36.2557 39.0087 36.5482C38.7162 36.8407 38.3196 37.005 37.906 37.005H16.0733C15.6597 37.005 15.263 36.8407 14.9706 36.5482C14.6781 36.2557 14.5138 35.8591 14.5138 35.4455V33.886Z" fill="white"/>
</svg>
