<svg width="52" height="53" viewBox="0 0 52 53" fill="none" xmlns="http://www.w3.org/2000/svg">
<path d="M21.4632 51.2507C23.7499 51.9107 25.9912 52.2313 28.2396 52.2313H28.2417C29.3721 52.2313 30.5249 52.148 31.6644 51.9835C34.3377 51.5975 37.8214 50.9547 41.0795 49.3978C43.7932 48.1166 45.4869 45.7415 47.1245 43.4451L47.1268 43.4419L47.1938 43.3465C50.3465 38.8847 51.874 34.7703 52 30.3898C51.982 30.0314 51.9599 29.6745 51.9335 29.3192C51.9776 28.7186 52 28.1119 52 27.5C52 15.9867 44.0583 6.3282 33.3542 3.7038C31.3588 3.07166 29.2438 2.5679 26.9639 2.05589C26.811 2.01878 26.6435 2 26.4667 2C26.292 2 26.1102 2.01878 25.9406 2.05489L25.6116 2.12233C21.519 2.96177 17.2873 3.83021 13.4461 5.78787C7.98177 8.56108 4.56267 12.4231 2.99401 17.5944C0.729577 25.0508 2.73701 32.1091 4.99945 38.0294C6.39699 41.6948 8.2551 44.2767 10.68 45.92C12.0394 46.8408 13.3633 47.6564 14.6597 48.3697C16.7415 49.6533 19.0298 50.634 21.4632 51.2507Z" fill="#3742FA"/>
<path d="M19.4632 49.2507C21.7499 49.9107 23.9912 50.2313 26.2396 50.2313H26.2417C27.3721 50.2313 28.5249 50.148 29.6644 49.9835C32.3377 49.5975 35.8214 48.9547 39.0795 47.3978C41.7932 46.1166 43.4869 43.7415 45.1245 41.4451L45.1268 41.4419L45.1938 41.3465C48.3465 36.8847 49.874 32.7703 50 28.3898C49.982 28.0314 49.9599 27.6745 49.9335 27.3192C49.9776 26.7186 50 26.1119 50 25.5C50 13.9867 42.0583 4.3282 31.3542 1.7038C29.3588 1.07166 27.2438 0.567895 24.9639 0.0558884C24.811 0.0187775 24.6435 0 24.4667 0C24.292 0 24.1102 0.0187776 23.9406 0.0548886L23.6116 0.122333C19.519 0.961773 15.2873 1.83021 11.4461 3.78787C5.98177 6.56108 2.56267 10.4231 0.994011 15.5944C-1.27042 23.0508 0.737012 30.1091 2.99945 36.0294C4.39699 39.6948 6.2551 42.2767 8.67997 43.92C10.0394 44.8408 11.3633 45.6564 12.6597 46.3697C14.7415 47.6533 17.0298 48.634 19.4632 49.2507Z" fill="#70A1FF"/>
<path d="M34.8182 20.5818L29.0636 17.4455C28.6545 17.2273 28.1636 17.2273 27.7545 17.4455L22 20.5818C21.8918 20.6402 21.8013 20.7269 21.7383 20.8325C21.6753 20.9381 21.642 21.0588 21.642 21.1818C21.642 21.3048 21.6753 21.4255 21.7383 21.5312C21.8013 21.6368 21.8918 21.7234 22 21.7818L27.7545 24.9182C28.1636 25.1364 28.6545 25.1364 29.0636 24.9182L34.8182 21.7818C35.2818 21.5227 35.2818 20.8409 34.8182 20.5818ZM37.2727 13H12.7273C11.2273 13 10 14.2273 10 15.7273V18.4545C10 19.2045 10.6136 19.8182 11.3636 19.8182C12.1136 19.8182 12.7273 19.2045 12.7273 18.4545V17.0909C12.7273 16.3409 13.3409 15.7273 14.0909 15.7273H35.9091C36.6591 15.7273 37.2727 16.3409 37.2727 17.0909V33.4545C37.2727 34.2045 36.6591 34.8182 35.9091 34.8182H29.0909C28.3409 34.8182 27.7273 35.4318 27.7273 36.1818C27.7273 36.9318 28.3409 37.5455 29.0909 37.5455H37.2727C38.7727 37.5455 40 36.3182 40 34.8182V15.7273C40 14.2273 38.7727 13 37.2727 13ZM27.7545 26.2818L23.6364 24.0318V25.9545C23.6364 26.4591 23.9091 26.9091 24.3455 27.1545L27.7545 29.0091C28.1636 29.2273 28.6545 29.2273 29.0636 29.0091L32.4727 27.1545C32.9091 26.9091 33.1818 26.4455 33.1818 25.9545V24.0318L29.0636 26.2818C28.6545 26.5 28.1636 26.5 27.7545 26.2818ZM11.962 33.953C10.9706 33.4115 10 34.3703 10 35.5C10 36.6297 10.9158 37.5455 12.0455 37.5455C13.1751 37.5455 14.1339 36.5749 13.5925 35.5834C13.2169 34.8957 12.6497 34.3285 11.962 33.953ZM11.5545 28.1227C10.7364 27.9864 10 28.6545 10 29.4864C10 30.1545 10.4909 30.7136 11.1591 30.8227C13.9955 31.3136 16.2318 33.55 16.7227 36.3864C16.8318 37.0545 17.3909 37.5455 18.0591 37.5455C18.8909 37.5455 19.5455 36.8091 19.4227 35.9909C19.0991 34.0212 18.1658 32.2026 16.7544 30.7911C15.3429 29.3796 13.5243 28.4464 11.5545 28.1227ZM11.5 22.6136C10.6955 22.5455 10 23.1727 10 23.9773C10 24.6727 10.5182 25.2591 11.2 25.3273C17.0227 25.8864 21.6591 30.5227 22.2182 36.3455C22.2864 37.0273 22.8727 37.5318 23.5682 37.5318C24.3864 37.5318 25.0136 36.8227 24.9318 36.0182C24.2091 28.9409 18.5773 23.3227 11.5 22.6136Z" fill="white"/>
</svg>
