<svg width="138" height="50" viewBox="0 0 138 50" fill="none" xmlns="http://www.w3.org/2000/svg">
<path d="M0 12.8303C0 7.30748 4.47715 2.83032 10 2.83032H110.745C113.464 2.83032 116.065 3.93723 117.95 5.89612L131.237 19.7023C134.999 23.6115 134.958 29.8075 131.144 33.6662L117.936 47.0296C116.057 48.9303 113.496 50 110.824 50H10C4.47715 50 0 45.5229 0 40V26.4152V12.8303Z" fill="#2F3542"/>
<path d="M0 10C0 4.47715 4.47715 0 10 0H57.5H110.745C113.464 0 116.065 1.10691 117.95 3.0658L131.237 16.872C134.999 20.7812 134.958 26.9771 131.144 30.8358L117.936 44.1993C116.057 46.1 113.496 47.1697 110.824 47.1697H10C4.47715 47.1697 0 42.6925 0 37.1697V23.5848V10Z" fill="#FF7F50"/>
<path d="M30.6575 10.9169H36.8115C37.0609 10.9169 37.2762 11.0076 37.4575 11.1889C37.6389 11.3703 37.7295 11.5856 37.7295 11.8349V33.7989C37.7295 34.0483 37.6389 34.2636 37.4575 34.4449C37.2762 34.6263 37.0609 34.7169 36.8115 34.7169H31.4395C30.8502 34.7169 30.3855 34.4563 30.0455 33.9349L24.2995 25.2649V33.7989C24.2995 34.0483 24.2089 34.2636 24.0275 34.4449C23.8462 34.6263 23.6309 34.7169 23.3815 34.7169H17.2275C16.9782 34.7169 16.7629 34.6263 16.5815 34.4449C16.4002 34.2636 16.3095 34.0483 16.3095 33.7989V11.8349C16.3095 11.5856 16.4002 11.3703 16.5815 11.1889C16.7629 11.0076 16.9782 10.9169 17.2275 10.9169H22.5995C23.2342 10.9169 23.6989 11.1776 23.9935 11.6989L29.7395 21.1169V11.8349C29.7395 11.5856 29.8302 11.3703 30.0115 11.1889C30.1929 11.0076 30.4082 10.9169 30.6575 10.9169ZM62.9836 27.8829H52.8516V28.0529C52.8516 29.4356 53.2936 30.1269 54.1776 30.1269C54.4269 30.1269 54.7329 29.9456 55.0956 29.5829C55.4582 29.2203 55.8549 29.0389 56.2856 29.0389H62.7116C63.2102 29.0389 63.4596 29.2883 63.4596 29.7869C63.4596 30.8976 62.6209 32.0536 60.9436 33.2549C59.2889 34.4563 57.0336 35.0569 54.1776 35.0569C51.3442 35.0569 49.0209 34.3203 47.2076 32.8469C45.4169 31.3509 44.5216 29.2996 44.5216 26.6929V25.0609C44.5216 22.5903 45.4396 20.5843 47.2756 19.0429C49.1116 17.4789 51.5142 16.6969 54.4836 16.6969C57.4756 16.6969 59.7876 17.5696 61.4196 19.3149C63.0742 21.0603 63.9016 23.2703 63.9016 25.9449V26.9649C63.9016 27.2143 63.8109 27.4296 63.6296 27.6109C63.4482 27.7923 63.2329 27.8829 62.9836 27.8829ZM55.5716 23.4969C55.5716 22.1369 55.1182 21.4569 54.2116 21.4569C53.3049 21.4569 52.8516 22.1369 52.8516 23.4969V23.6329H55.5716V23.4969ZM89.8316 33.4589C89.9223 33.5723 89.9676 33.7309 89.9676 33.9349C89.9676 34.1389 89.8883 34.3203 89.7296 34.4789C89.5709 34.6376 89.3783 34.7169 89.1516 34.7169H82.6236C82.2156 34.7169 81.8756 34.5243 81.6036 34.1389L79.3596 30.8409L77.0136 34.1389C76.7643 34.5243 76.4243 34.7169 75.9936 34.7169H69.6356C69.4089 34.7169 69.2163 34.6376 69.0576 34.4789C68.8989 34.3203 68.8196 34.1389 68.8196 33.9349C68.8196 33.7309 68.8649 33.5723 68.9556 33.4589L74.4636 25.6049L69.5676 18.2949C69.4769 18.1589 69.4316 18.0003 69.4316 17.8189C69.4316 17.6149 69.5109 17.4336 69.6696 17.2749C69.8283 17.1163 70.0209 17.0369 70.2476 17.0369H76.4696C76.9003 17.0369 77.2629 17.2523 77.5576 17.6829L79.5296 20.7089L81.5016 17.6829C81.7963 17.2523 82.1589 17.0369 82.5896 17.0369H88.5396C88.7663 17.0369 88.9589 17.1163 89.1176 17.2749C89.2763 17.4336 89.3556 17.6149 89.3556 17.8189C89.3556 18.0003 89.3103 18.1589 89.2196 18.2949L84.2216 25.5709L89.8316 33.4589ZM105.594 22.9869V26.7269C105.594 27.8603 106.081 28.4269 107.056 28.4269H110.15C110.399 28.4269 110.615 28.5176 110.796 28.6989C110.977 28.8803 111.068 29.0956 111.068 29.3449V33.7989C111.068 34.0483 110.977 34.2636 110.796 34.4449C110.615 34.6263 110.399 34.7169 110.15 34.7169H106.308C100.641 34.7169 97.8081 32.2803 97.8081 27.4069V22.9869H95.1221C94.8727 22.9869 94.6574 22.8963 94.4761 22.7149C94.2947 22.5336 94.2041 22.3183 94.2041 22.0689V17.9549C94.2041 17.7056 94.2947 17.4903 94.4761 17.3089C94.6574 17.1276 94.8727 17.0369 95.1221 17.0369H97.8081V11.4949C97.8081 11.2456 97.8987 11.0303 98.0801 10.8489C98.2614 10.6676 98.4767 10.5769 98.7261 10.5769H104.676C104.925 10.5769 105.141 10.6676 105.322 10.8489C105.503 11.0303 105.594 11.2456 105.594 11.4949V17.0369H109.878C110.127 17.0369 110.343 17.1276 110.524 17.3089C110.705 17.4903 110.796 17.7056 110.796 17.9549V22.0689C110.796 22.3183 110.705 22.5336 110.524 22.7149C110.343 22.8963 110.127 22.9869 109.878 22.9869H105.594Z" fill="white"/>
</svg>
