<svg width="138" height="50" viewBox="0 0 138 50" fill="none" xmlns="http://www.w3.org/2000/svg">
<path d="M0 12.8303C0 7.30748 4.47715 2.83032 10 2.83032H110.745C113.464 2.83032 116.065 3.93723 117.95 5.89612L131.237 19.7023C134.999 23.6115 134.958 29.8075 131.144 33.6662L117.936 47.0296C116.057 48.9303 113.496 50 110.824 50H10C4.47715 50 0 45.5229 0 40V26.4152V12.8303Z" fill="#2F3542"/>
<path d="M0 10C0 4.47715 4.47715 0 10 0H57.5H110.745C113.464 0 116.065 1.10691 117.95 3.0658L131.237 16.872C134.999 20.7812 134.958 26.9771 131.144 30.8358L117.936 44.1993C116.057 46.1 113.496 47.1697 110.824 47.1697H10C4.47715 47.1697 0 42.6925 0 37.1697V23.5848V10Z" fill="#FF7F50"/>
<path d="M18.9846 18.3969C18.9846 16.0849 19.9366 14.2036 21.8406 12.7529C23.7673 11.3023 26.2833 10.5769 29.3886 10.5769C32.5166 10.5769 35.0666 11.3363 37.0386 12.8549C39.0333 14.3736 40.0306 15.9603 40.0306 17.6149C40.0306 17.8189 39.9513 18.0003 39.7926 18.1589C39.6566 18.2949 39.498 18.3629 39.3166 18.3629H32.5166C31.9953 18.3629 31.5193 18.1703 31.0886 17.7849C30.658 17.3996 30.08 17.2069 29.3546 17.2069C28.2666 17.2069 27.7226 17.5243 27.7226 18.1589C27.7226 18.4989 27.9833 18.7823 28.5046 19.0089C29.0486 19.2356 30.046 19.4396 31.4966 19.6209C34.874 20.0516 37.2766 20.8449 38.7046 22.0009C40.1553 23.1343 40.8806 24.8683 40.8806 27.2029C40.8806 29.5149 39.8153 31.4076 37.6846 32.8809C35.5766 34.3316 32.8113 35.0569 29.3886 35.0569C25.966 35.0569 23.28 34.3543 21.3306 32.9489C19.3813 31.5436 18.4066 29.8323 18.4066 27.8149C18.4066 27.6109 18.4746 27.4409 18.6106 27.3049C18.7693 27.1463 18.9506 27.0669 19.1546 27.0669H25.6146C26.0906 27.0669 26.612 27.2936 27.1786 27.7469C27.768 28.2003 28.5726 28.4269 29.5926 28.4269C31.2926 28.4269 32.1426 28.1096 32.1426 27.4749C32.1426 27.0669 31.8366 26.7609 31.2246 26.5569C30.6126 26.3303 29.4566 26.1036 27.7566 25.8769C21.9086 25.1063 18.9846 22.6129 18.9846 18.3969ZM54.7766 11.4949V22.5109L57.7686 17.6149C57.9952 17.2296 58.3239 17.0369 58.7546 17.0369H65.6226C65.8492 17.0369 66.0419 17.1163 66.2006 17.2749C66.3592 17.4336 66.4386 17.6149 66.4386 17.8189C66.4386 18.0229 66.3819 18.2043 66.2686 18.3629L61.6106 24.9929L67.1186 33.4589C67.2092 33.5949 67.2546 33.7649 67.2546 33.9689C67.2546 34.1503 67.1752 34.3203 67.0166 34.4789C66.8579 34.6376 66.6652 34.7169 66.4386 34.7169H59.2986C58.8452 34.7169 58.4939 34.5243 58.2446 34.1389L54.7766 28.3589V33.7989C54.7766 34.0483 54.6859 34.2636 54.5046 34.4449C54.3232 34.6263 54.1079 34.7169 53.8586 34.7169H47.9086C47.6592 34.7169 47.4439 34.6263 47.2626 34.4449C47.0812 34.2636 46.9906 34.0483 46.9906 33.7989V11.4949C46.9906 11.2456 47.0812 11.0303 47.2626 10.8489C47.4439 10.6676 47.6592 10.5769 47.9086 10.5769H53.8586C54.1079 10.5769 54.3232 10.6676 54.5046 10.8489C54.6859 11.0303 54.7766 11.2456 54.7766 11.4949ZM79.7071 34.7169H73.6211C73.3717 34.7169 73.1564 34.6263 72.9751 34.4449C72.7937 34.2636 72.7031 34.0483 72.7031 33.7989V17.9549C72.7031 17.7056 72.7937 17.4903 72.9751 17.3089C73.1564 17.1276 73.3717 17.0369 73.6211 17.0369H79.7071C79.9564 17.0369 80.1717 17.1276 80.3531 17.3089C80.5344 17.4903 80.6251 17.7056 80.6251 17.9549V33.7989C80.6251 34.0483 80.5344 34.2636 80.3531 34.4449C80.1717 34.6263 79.9564 34.7169 79.7071 34.7169ZM80.4551 10.4749V14.5889C80.4551 14.8383 80.3644 15.0536 80.1831 15.2349C80.0017 15.4163 79.7864 15.5069 79.5371 15.5069H73.7911C73.5417 15.5069 73.3264 15.4163 73.1451 15.2349C72.9637 15.0536 72.8731 14.8383 72.8731 14.5889V10.4749C72.8731 10.2256 72.9637 10.0103 73.1451 9.82892C73.3264 9.64758 73.5417 9.55692 73.7911 9.55692H79.5371C79.7864 9.55692 80.0017 9.64758 80.1831 9.82892C80.3644 10.0103 80.4551 10.2256 80.4551 10.4749ZM107.281 24.5509V27.2369C107.281 29.7756 106.601 31.7136 105.241 33.0509C103.881 34.3883 102.215 35.0569 100.243 35.0569C98.294 35.0569 96.73 34.5243 95.5513 33.4589V40.2589C95.5513 40.5083 95.4606 40.7236 95.2793 40.9049C95.098 41.0863 94.8826 41.1769 94.6333 41.1769H88.3433C88.094 41.1769 87.8786 41.0863 87.6973 40.9049C87.516 40.7236 87.4253 40.5083 87.4253 40.2589V17.9549C87.4253 17.7056 87.516 17.4903 87.6973 17.3089C87.8786 17.1276 88.094 17.0369 88.3433 17.0369H94.1233C94.3726 17.0369 94.588 17.1276 94.7693 17.3089C94.9506 17.4903 95.0413 17.7056 95.0413 17.9549V18.9749C96.22 17.4563 97.886 16.6969 100.039 16.6969C102.193 16.6969 103.938 17.3429 105.275 18.6349C106.613 19.9043 107.281 21.8763 107.281 24.5509ZM95.5513 24.7549V27.2709C95.6193 28.4043 96.186 28.9709 97.2513 28.9709C98.3846 28.9709 98.9513 28.3136 98.9513 26.9989V24.7549C98.9513 23.4403 98.3846 22.7829 97.2513 22.7829C96.118 22.7829 95.5513 23.4403 95.5513 24.7549Z" fill="white"/>
</svg>
